<svg width="317" height="323" viewBox="0 0 317 323" fill="none" xmlns="http://www.w3.org/2000/svg">
<path d="M193.838 182.745H224.192C235.626 182.764 246.753 186.444 255.941 193.245C265.129 200.046 271.896 209.61 275.247 220.534L291.644 273.978C292.233 275.887 292.366 277.908 292.031 279.877C291.697 281.846 290.904 283.71 289.718 285.317C288.531 286.925 286.984 288.231 285.2 289.132C283.416 290.033 281.446 290.503 279.447 290.505H138.479C136.48 290.503 134.509 290.033 132.725 289.132C130.942 288.231 129.394 286.925 128.208 285.317C127.021 283.71 126.229 281.846 125.894 279.877C125.56 277.908 125.692 275.887 126.281 273.978L142.678 220.534C146.035 209.592 152.817 200.016 162.026 193.214C171.236 186.411 182.386 182.742 193.838 182.745Z" fill="#68E1FD"/>
<path d="M279.499 292.246H138.531C136.255 292.253 134.009 291.725 131.975 290.706C129.94 289.687 128.174 288.204 126.817 286.378C125.461 284.551 124.553 282.432 124.166 280.191C123.78 277.949 123.925 275.648 124.591 273.473L141.075 220.029C144.5 208.711 151.488 198.8 161 191.769C170.513 184.738 182.041 180.963 193.873 181.004H224.192C236.024 180.963 247.552 184.738 257.065 191.769C266.577 198.8 273.565 208.711 276.99 220.029L293.387 273.473C294.053 275.648 294.198 277.949 293.811 280.191C293.425 282.432 292.517 284.551 291.16 286.378C289.804 288.204 288.037 289.687 286.003 290.706C283.968 291.725 281.723 292.253 279.447 292.246H279.499ZM193.838 184.487C182.752 184.448 171.949 187.986 163.036 194.575C154.123 201.163 147.576 210.451 144.368 221.057L127.971 274.501C127.468 276.152 127.359 277.897 127.652 279.598C127.944 281.298 128.631 282.907 129.658 284.295C130.684 285.682 132.021 286.811 133.562 287.59C135.102 288.369 136.804 288.777 138.531 288.781H279.499C281.226 288.777 282.928 288.369 284.468 287.59C286.009 286.811 287.346 285.682 288.372 284.295C289.399 282.907 290.086 281.298 290.378 279.598C290.671 277.897 290.562 276.152 290.059 274.501L273.662 221.057C270.454 210.451 263.907 201.163 254.994 194.575C246.081 187.986 235.278 184.448 224.192 184.487H193.838Z" fill="#093F68"/>
<path d="M199.745 176.72H218.285V187.378C218.285 188.411 218.081 189.435 217.686 190.39C217.29 191.345 216.71 192.212 215.978 192.943C215.247 193.674 214.379 194.254 213.423 194.65C212.468 195.045 211.443 195.249 210.409 195.249H207.604C205.515 195.249 203.511 194.42 202.034 192.943C200.557 191.467 199.728 189.465 199.728 187.378V176.72H199.745Z" fill="#FFC9B0"/>
<path d="M210.409 196.973H207.621C205.073 196.973 202.629 195.962 200.826 194.163C199.022 192.364 198.007 189.924 198.002 187.378V176.72C198.002 176.258 198.186 175.815 198.513 175.489C198.84 175.162 199.283 174.979 199.745 174.979H218.285C218.747 174.979 219.191 175.162 219.517 175.489C219.844 175.815 220.028 176.258 220.028 176.72V187.378C220.023 189.924 219.008 192.364 217.204 194.163C215.401 195.962 212.957 196.973 210.409 196.973V196.973ZM201.487 178.461V187.378C201.492 189 202.14 190.555 203.29 191.701C204.44 192.847 205.997 193.49 207.621 193.49H210.409C212.033 193.49 213.59 192.847 214.74 191.701C215.89 190.555 216.538 189 216.543 187.378V178.461H201.487Z" fill="#093F68"/>
<path d="M145.03 125.331C136.423 122.074 136.945 115.492 135.656 107.063C134.364 98.7121 133.567 90.2923 133.269 81.8474C132.938 72.2521 133.269 62.3957 136.928 53.497C141.615 42.0559 150.868 34.6723 163.222 35.6823C162.856 18.8253 172.98 3.01321 190.91 2.05543C219.644 0.522979 236.215 31.3636 252.264 29.0649C268.312 26.7662 272.616 19.6264 272.616 19.6264C275.313 24.7839 276.421 30.624 275.801 36.41C275.18 42.196 272.86 47.669 269.131 52.1387C269.131 52.1387 281.799 48.4469 283.333 65.2865C284.866 82.126 274.777 126.881 274.777 126.881L263.329 124.93C258.502 124.077 252.473 125.261 247.646 125.418L211.733 126.532C193.716 127.037 164.581 132.714 145.03 125.331Z" fill="#725858"/>
<path d="M170.924 130.816C161.48 130.816 152.192 129.893 144.403 126.95C136.057 123.781 135.29 117.755 134.401 110.772C134.262 109.611 134.105 108.451 133.931 107.29C132.632 98.869 131.829 90.3794 131.526 81.8648C131.212 72.8616 131.422 62.3435 135.325 52.8179C140.291 40.6279 149.561 33.819 160.939 33.819H161.48C161.863 17.6063 171.813 1.28921 190.823 0.279185C207.534 -0.591526 220.446 9.14302 230.761 16.962C238.742 23.0047 245.642 28.2116 252.003 27.3061C266.901 25.1815 271.17 18.7557 271.17 18.686C271.329 18.4325 271.55 18.2241 271.812 18.0807C272.075 17.9374 272.369 17.864 272.669 17.8675C272.971 17.8676 273.268 17.9463 273.531 18.0959C273.794 18.2455 274.013 18.4609 274.167 18.7208C274.254 18.8776 282.984 34.2543 272.843 50.0664C275.007 50.1642 277.104 50.8506 278.907 52.0517C282.392 54.4896 284.57 58.878 285.127 65.1297C286.678 82.0564 276.973 125.418 276.554 127.264C276.454 127.699 276.19 128.079 275.817 128.326C275.444 128.572 274.991 128.666 274.55 128.587L263.05 126.672C259.648 126.294 256.212 126.341 252.821 126.811C251.079 126.985 249.336 127.142 247.594 127.194L211.681 128.309C207.203 128.448 201.94 128.918 196.382 129.406C188.523 130.033 179.654 130.816 170.924 130.816ZM145.64 123.694C159.894 129.092 179.985 127.298 196.173 125.853C201.784 125.348 207.098 124.878 211.681 124.739L247.594 123.624C249.11 123.624 250.765 123.415 252.508 123.258C256.205 122.746 259.953 122.711 263.66 123.154C264.27 123.154 266.256 123.589 273.505 124.895C275.247 116.745 282.984 80.0537 281.66 65.4606C281.189 60.2363 279.621 56.7535 276.973 55.0121C275.896 54.3457 274.697 53.9009 273.447 53.7035C272.196 53.5062 270.918 53.5603 269.689 53.8627C269.332 53.9649 268.953 53.9507 268.605 53.8223C268.257 53.6939 267.959 53.458 267.755 53.1488C267.551 52.8395 267.452 52.4737 267.471 52.1042C267.49 51.7348 267.626 51.3809 267.859 51.0939C271.125 47.2401 273.26 42.5588 274.029 37.5676C274.798 32.5765 274.17 27.47 272.216 22.8132C269.549 25.3208 263.747 29.239 252.543 30.8411C244.736 31.9382 237.296 26.3309 228.688 19.8354C218.233 11.9467 206.471 3.03064 191.05 3.8491C173.52 4.77206 164.668 20.5842 164.999 35.6997C165.004 35.9443 164.956 36.1871 164.86 36.4121C164.764 36.6372 164.621 36.8394 164.442 37.0058C164.264 37.174 164.052 37.3028 163.821 37.3839C163.59 37.4649 163.344 37.4963 163.1 37.476C152.227 36.5704 143.288 42.7002 138.583 54.211C134.941 63.1445 134.75 73.1925 135.098 81.83C135.392 90.2044 136.178 98.5543 137.451 106.837C137.642 108.073 137.799 109.24 137.938 110.32C138.775 116.902 139.332 121.256 145.727 123.676L145.64 123.694Z" fill="#093F68"/>
<path d="M156.043 144.103C165.984 144.103 174.043 137.164 174.043 128.605C174.043 120.045 165.984 113.106 156.043 113.106C146.102 113.106 138.043 120.045 138.043 128.605C138.043 137.164 146.102 144.103 156.043 144.103Z" fill="#FFC9B0"/>
<path d="M156.043 145.827C145.152 145.827 136.301 138.095 136.301 128.587C136.301 119.079 145.152 111.33 156.043 111.33C166.934 111.33 175.803 119.079 175.803 128.587C175.803 138.095 166.934 145.827 156.043 145.827ZM156.043 114.812C147.087 114.812 139.786 120.995 139.786 128.587C139.786 136.18 147.087 142.344 156.043 142.344C164.999 142.344 172.318 136.18 172.318 128.587C172.318 120.995 165.017 114.83 156.043 114.83V114.812Z" fill="#093F68"/>
<path d="M261.029 144.103C270.97 144.103 279.029 137.164 279.029 128.605C279.029 120.045 270.97 113.106 261.029 113.106C251.088 113.106 243.029 120.045 243.029 128.605C243.029 137.164 251.088 144.103 261.029 144.103Z" fill="#FFC9B0"/>
<path d="M261.029 145.827C250.138 145.827 241.269 138.095 241.269 128.587C241.269 119.079 250.138 111.33 261.029 111.33C271.919 111.33 280.771 119.079 280.771 128.587C280.771 138.095 271.919 145.827 261.029 145.827ZM261.029 114.812C252.055 114.812 244.754 120.995 244.754 128.587C244.754 136.18 252.055 142.344 261.029 142.344C270.003 142.344 277.286 136.18 277.286 128.587C277.286 120.995 270.02 114.83 261.029 114.83V114.812Z" fill="#093F68"/>
<path d="M209.033 179.141C194.637 179.145 180.828 173.438 170.64 163.273C160.453 153.108 154.72 139.317 154.701 124.93V85.4695C157.873 90.6938 168.415 88.6041 183.871 62.1171C241.722 91.4078 263.329 74.6205 263.329 74.6205V124.93C263.31 139.311 257.582 153.097 247.402 163.261C237.222 173.425 223.422 179.136 209.033 179.141V179.141Z" fill="#FFC9B0"/>
<path d="M209.032 180.882C194.179 180.873 179.935 174.978 169.423 164.489C158.912 154.001 152.991 139.775 152.959 124.93V85.4695C152.955 85.0865 153.078 84.713 153.308 84.4067C153.538 84.1004 153.863 83.8785 154.232 83.7754C154.601 83.6723 154.994 83.6936 155.35 83.8362C155.706 83.9788 156.004 84.2346 156.2 84.564C156.467 85.028 156.857 85.4087 157.328 85.6639C157.799 85.9191 158.331 86.0387 158.866 86.0094V86.0094C160.992 86.0094 168.972 84.1461 182.337 61.229C182.552 60.8339 182.911 60.5371 183.34 60.4008C183.769 60.2645 184.234 60.2992 184.637 60.4976C240.537 88.7957 262.039 73.3318 262.248 73.1751C262.507 72.976 262.817 72.8536 263.142 72.8218C263.467 72.7901 263.794 72.8502 264.087 72.9955C264.379 73.1407 264.625 73.3652 264.796 73.6433C264.967 73.9214 265.056 74.2419 265.054 74.5683V124.93C265.022 139.766 259.108 153.984 248.608 164.471C238.108 174.958 223.877 180.859 209.032 180.882V180.882ZM156.461 89.0743V124.93C156.461 138.864 162 152.228 171.859 162.081C181.718 171.934 195.09 177.469 209.032 177.469C222.975 177.469 236.347 171.934 246.206 162.081C256.065 152.228 261.604 138.864 261.604 124.93V77.6157C254.076 81.0986 230.953 87.507 184.568 64.3984C174.949 80.5413 165.871 89.44 158.953 89.4922C158.096 89.5339 157.241 89.3914 156.444 89.0743H156.461Z" fill="#093F68"/>
<path d="M243.883 277.688C243.42 277.688 242.977 277.504 242.65 277.178C242.324 276.851 242.14 276.408 242.14 275.946V212.245C242.14 211.783 242.324 211.34 242.65 211.014C242.977 210.687 243.42 210.504 243.883 210.504C244.345 210.504 244.788 210.687 245.115 211.014C245.441 211.34 245.625 211.783 245.625 212.245V275.946C245.625 276.408 245.441 276.851 245.115 277.178C244.788 277.504 244.345 277.688 243.883 277.688V277.688Z" fill="#093F68"/>
<path d="M174.182 277.688C173.72 277.688 173.277 277.504 172.95 277.178C172.624 276.851 172.44 276.408 172.44 275.946V212.245C172.44 211.783 172.624 211.34 172.95 211.014C173.277 210.687 173.72 210.504 174.182 210.504C174.645 210.504 175.088 210.687 175.415 211.014C175.741 211.34 175.925 211.783 175.925 212.245V275.946C175.925 276.408 175.741 276.851 175.415 277.178C175.088 277.504 174.645 277.688 174.182 277.688V277.688Z" fill="#093F68"/>
<path d="M208.893 134.839C207.066 134.826 205.243 134.674 203.439 134.386C202.977 134.305 202.566 134.044 202.296 133.661C202.027 133.277 201.921 132.802 202.001 132.34C202.082 131.878 202.343 131.467 202.727 131.198C203.111 130.928 203.587 130.822 204.049 130.903C206.791 131.334 209.584 131.334 212.326 130.903C212.674 129.301 210.583 123.328 207.621 117.703C207.519 117.496 207.459 117.27 207.445 117.039C207.431 116.808 207.463 116.576 207.54 116.358C207.616 116.139 207.736 115.938 207.891 115.767C208.046 115.595 208.234 115.456 208.443 115.357C208.653 115.259 208.88 115.203 209.112 115.194C209.343 115.184 209.574 115.221 209.791 115.301C210.008 115.382 210.207 115.505 210.376 115.663C210.545 115.821 210.68 116.012 210.775 116.223C212.727 119.967 217.1 129.057 215.497 132.627C215.318 133.054 215.042 133.433 214.691 133.735C214.34 134.037 213.924 134.254 213.476 134.369C211.973 134.713 210.434 134.871 208.893 134.839V134.839Z" fill="#093F68"/>
<path d="M196.835 93.1144H170.21C169.285 93.1144 168.399 92.7474 167.745 92.0943C167.092 91.4411 166.725 90.5552 166.725 89.6315C166.725 88.7078 167.092 87.822 167.745 87.1688C168.399 86.5156 169.285 86.1487 170.21 86.1487H196.852C197.777 86.1487 198.663 86.5156 199.317 87.1688C199.97 87.822 200.337 88.7078 200.337 89.6315C200.337 90.5552 199.97 91.4411 199.317 92.0943C198.663 92.7474 197.777 93.1144 196.852 93.1144H196.835Z" fill="#093F68"/>
<path d="M246.061 93.1144H219.435C218.511 93.1144 217.625 92.7474 216.971 92.0943C216.317 91.4411 215.95 90.5552 215.95 89.6315C215.95 88.7078 216.317 87.822 216.971 87.1688C217.625 86.5156 218.511 86.1487 219.435 86.1487H246.061C246.985 86.1487 247.871 86.5156 248.525 87.1688C249.178 87.822 249.546 88.7078 249.546 89.6315C249.546 90.5552 249.178 91.4411 248.525 92.0943C247.871 92.7474 246.985 93.1144 246.061 93.1144Z" fill="#093F68"/>
<path d="M167.892 102.657H199.257C200.44 102.657 201.575 103.127 202.411 103.963C203.248 104.799 203.718 105.933 203.718 107.115V110.024C203.718 114.009 202.134 117.832 199.313 120.65C196.493 123.469 192.668 125.052 188.68 125.052H178.452C174.463 125.052 170.638 123.469 167.818 120.65C164.998 117.832 163.414 114.009 163.414 110.024V107.115C163.414 106.528 163.53 105.947 163.755 105.405C163.98 104.863 164.31 104.371 164.726 103.957C165.143 103.543 165.636 103.215 166.18 102.992C166.723 102.769 167.305 102.655 167.892 102.657V102.657Z" fill="white"/>
<path d="M188.698 126.811H178.487C174.038 126.806 169.772 125.038 166.626 121.894C163.48 118.75 161.711 114.487 161.706 110.041V107.115C161.706 105.474 162.357 103.9 163.517 102.738C164.677 101.576 166.25 100.921 167.892 100.916H199.257C200.901 100.921 202.476 101.575 203.638 102.737C204.801 103.898 205.456 105.473 205.46 107.115V110.041C205.456 114.484 203.689 118.744 200.547 121.888C197.405 125.031 193.144 126.802 188.698 126.811V126.811ZM167.892 104.399C167.536 104.399 167.183 104.469 166.855 104.606C166.526 104.743 166.227 104.943 165.976 105.196C165.725 105.448 165.527 105.748 165.392 106.077C165.257 106.407 165.189 106.759 165.191 107.115V110.041C165.196 113.564 166.598 116.94 169.09 119.431C171.583 121.922 174.962 123.323 178.487 123.328H188.698C192.224 123.323 195.605 121.923 198.1 119.432C200.595 116.942 202.001 113.565 202.01 110.041V107.115C202.01 106.395 201.724 105.704 201.214 105.194C200.704 104.685 200.013 104.399 199.292 104.399H167.892Z" fill="#093F68"/>
<path d="M218.529 102.657H249.894C251.077 102.657 252.212 103.127 253.048 103.963C253.885 104.799 254.355 105.933 254.355 107.115V110.024C254.355 114.009 252.771 117.832 249.95 120.65C247.13 123.469 243.305 125.052 239.317 125.052H229.089C225.1 125.052 221.275 123.469 218.455 120.65C215.635 117.832 214.051 114.009 214.051 110.024V107.115C214.051 106.528 214.167 105.947 214.392 105.405C214.617 104.863 214.948 104.371 215.364 103.957C215.78 103.543 216.273 103.215 216.817 102.992C217.36 102.769 217.942 102.655 218.529 102.657V102.657Z" fill="white"/>
<path d="M239.335 126.811H229.123C224.671 126.811 220.402 125.045 217.252 121.9C214.102 118.756 212.33 114.49 212.326 110.041V107.115C212.33 105.473 212.985 103.898 214.148 102.737C215.31 101.575 216.885 100.921 218.529 100.916H249.894C251.536 100.921 253.11 101.576 254.269 102.738C255.429 103.9 256.08 105.474 256.08 107.115V110.041C256.075 114.481 254.311 118.739 251.172 121.882C248.034 125.025 243.777 126.797 239.335 126.811V126.811ZM218.529 104.399C217.808 104.399 217.117 104.685 216.607 105.194C216.097 105.704 215.811 106.395 215.811 107.115V110.041C215.82 113.565 217.226 116.942 219.721 119.432C222.216 121.923 225.597 123.323 229.123 123.328H239.335C242.859 123.323 246.238 121.922 248.731 119.431C251.223 116.94 252.625 113.564 252.63 110.041V107.115C252.632 106.759 252.564 106.407 252.429 106.077C252.295 105.748 252.096 105.448 251.845 105.196C251.594 104.943 251.295 104.743 250.967 104.606C250.638 104.469 250.285 104.399 249.929 104.399H218.529Z" fill="#093F68"/>
<path d="M163.449 111.782H153.273C152.81 111.782 152.367 111.599 152.04 111.272C151.714 110.946 151.53 110.503 151.53 110.041C151.53 109.579 151.714 109.136 152.04 108.81C152.367 108.483 152.81 108.3 153.273 108.3H163.396C163.859 108.3 164.302 108.483 164.629 108.81C164.955 109.136 165.139 109.579 165.139 110.041C165.139 110.503 164.955 110.946 164.629 111.272C164.302 111.599 163.859 111.782 163.396 111.782H163.449Z" fill="#093F68"/>
<path d="M265.002 111.782H254.895C254.433 111.782 253.99 111.599 253.663 111.272C253.336 110.946 253.153 110.503 253.153 110.041C253.153 109.579 253.336 109.136 253.663 108.81C253.99 108.483 254.433 108.3 254.895 108.3H265.002C265.464 108.3 265.907 108.483 266.234 108.81C266.561 109.136 266.744 109.579 266.744 110.041C266.744 110.503 266.561 110.946 266.234 111.272C265.907 111.599 265.464 111.782 265.002 111.782Z" fill="#093F68"/>
<path d="M214.068 111.782H203.805C203.343 111.782 202.9 111.599 202.573 111.272C202.246 110.946 202.062 110.503 202.062 110.041C202.062 109.579 202.246 109.136 202.573 108.81C202.9 108.483 203.343 108.3 203.805 108.3H214.121C214.583 108.3 215.026 108.483 215.353 108.81C215.68 109.136 215.863 109.579 215.863 110.041C215.863 110.503 215.68 110.946 215.353 111.272C215.026 111.599 214.583 111.782 214.121 111.782H214.068Z" fill="#093F68"/>
<path d="M207.865 151.626C201.648 151.65 195.479 150.523 189.673 148.3C189.241 148.134 188.893 147.803 188.705 147.38C188.517 146.957 188.505 146.477 188.671 146.045C188.838 145.613 189.169 145.265 189.592 145.077C190.015 144.889 190.496 144.877 190.928 145.044C202.062 149.042 214.243 149.042 225.377 145.044C225.589 144.956 225.816 144.91 226.045 144.91C226.274 144.909 226.501 144.954 226.713 145.041C226.925 145.129 227.118 145.257 227.28 145.419C227.443 145.58 227.572 145.772 227.66 145.984C227.748 146.195 227.794 146.422 227.794 146.651C227.794 146.881 227.75 147.108 227.662 147.319C227.575 147.531 227.447 147.724 227.285 147.886C227.123 148.048 226.931 148.177 226.719 148.265C220.689 150.515 214.301 151.654 207.865 151.626V151.626Z" fill="#093F68"/>
<path d="M256.794 263.06C256.387 263.068 255.989 262.933 255.671 262.678C255.352 262.424 255.133 262.066 255.052 261.667C255.006 261.442 255.005 261.212 255.048 260.987C255.092 260.762 255.179 260.549 255.306 260.358C255.432 260.167 255.594 260.003 255.784 259.875C255.974 259.747 256.187 259.657 256.411 259.612L275.683 255.676C276.145 255.584 276.625 255.679 277.017 255.94C277.409 256.201 277.682 256.607 277.774 257.069C277.867 257.531 277.772 258.011 277.51 258.403C277.249 258.794 276.842 259.067 276.38 259.159L257.108 263.077C257.003 263.086 256.898 263.08 256.794 263.06V263.06Z" fill="#093F68"/>
<path d="M161.236 263.06C161.12 263.078 161.003 263.078 160.887 263.06L141.615 259.02C141.386 258.974 141.169 258.884 140.975 258.754C140.781 258.624 140.615 258.457 140.485 258.263C140.356 258.069 140.266 257.852 140.22 257.623C140.175 257.394 140.175 257.159 140.221 256.93C140.267 256.701 140.357 256.484 140.487 256.29C140.617 256.096 140.784 255.93 140.978 255.801C141.172 255.671 141.39 255.581 141.619 255.536C141.848 255.491 142.083 255.491 142.312 255.537L161.584 259.472C161.809 259.518 162.022 259.607 162.211 259.735C162.401 259.863 162.564 260.028 162.69 260.218C162.816 260.409 162.903 260.623 162.947 260.848C162.99 261.072 162.989 261.303 162.943 261.527C162.893 261.946 162.692 262.332 162.378 262.614C162.064 262.896 161.658 263.054 161.236 263.06Z" fill="#093F68"/>
<path d="M159.824 226.559H257.997C260.206 226.559 262.324 227.436 263.886 228.998C265.448 230.559 266.326 232.676 266.326 234.883V292.107H151.53V234.883C151.53 232.682 152.403 230.57 153.957 229.01C155.512 227.45 157.621 226.569 159.824 226.559V226.559Z" fill="#F56132"/>
<path d="M266.326 293.848H151.53C151.068 293.848 150.625 293.665 150.298 293.338C149.971 293.011 149.787 292.568 149.787 292.107V234.883C149.787 232.214 150.849 229.654 152.737 227.766C154.626 225.879 157.188 224.818 159.859 224.818H257.997C260.668 224.818 263.23 225.879 265.118 227.766C267.007 229.654 268.068 232.214 268.068 234.883V292.107C268.068 292.568 267.885 293.011 267.558 293.338C267.231 293.665 266.788 293.848 266.326 293.848ZM153.272 290.365H264.618V234.883C264.614 233.139 263.918 231.467 262.684 230.234C261.45 229.001 259.777 228.306 258.032 228.301H159.824C158.079 228.306 156.406 229.001 155.172 230.234C153.938 231.467 153.242 233.139 153.238 234.883L153.272 290.365Z" fill="#093F68"/>
<path d="M145.919 292.107H271.919C271.919 294.333 271.034 296.468 269.459 298.042C267.884 299.616 265.748 300.5 263.52 300.5H154.318C152.09 300.5 149.954 299.616 148.379 298.042C146.804 296.468 145.919 294.333 145.919 292.107V292.107Z" fill="#F56132"/>
<path d="M263.503 302.277H154.318C151.63 302.272 149.053 301.203 147.152 299.303C145.251 297.403 144.181 294.828 144.177 292.141C144.177 291.68 144.36 291.237 144.687 290.91C145.014 290.583 145.457 290.4 145.919 290.4H271.902C272.364 290.4 272.807 290.583 273.134 290.91C273.461 291.237 273.644 291.68 273.644 292.141C273.64 294.828 272.57 297.403 270.669 299.303C268.768 301.203 266.191 302.272 263.503 302.277ZM147.888 293.848C148.274 295.257 149.112 296.501 150.273 297.389C151.435 298.276 152.856 298.757 154.318 298.759H263.503C264.98 298.776 266.421 298.304 267.6 297.415C268.78 296.526 269.631 295.272 270.02 293.848H147.888Z" fill="#093F68"/>
<path d="M207.621 228.301C207.159 228.301 206.716 228.117 206.389 227.791C206.062 227.464 205.879 227.021 205.879 226.559V195.214C205.879 194.752 206.062 194.309 206.389 193.983C206.716 193.656 207.159 193.473 207.621 193.473C208.083 193.473 208.526 193.656 208.853 193.983C209.18 194.309 209.364 194.752 209.364 195.214V226.559C209.364 227.021 209.18 227.464 208.853 227.791C208.526 228.117 208.083 228.301 207.621 228.301Z" fill="#093F68"/>
<path d="M42.3798 250.156H91.1698V284.531C91.1698 288.776 89.4827 292.846 86.4796 295.848C83.4764 298.849 79.4033 300.535 75.1563 300.535H58.3934C54.1463 300.535 50.0732 298.849 47.0701 295.848C44.0669 292.846 42.3798 288.776 42.3798 284.531V250.156Z" fill="#FFBC0E"/>
<path d="M75.1562 302.277H58.3934C53.6856 302.272 49.172 300.401 45.8431 297.074C42.5141 293.747 40.6419 289.236 40.6373 284.531V250.156C40.6373 249.694 40.8209 249.251 41.1477 248.924C41.4745 248.598 41.9177 248.414 42.3798 248.414H91.1698C91.632 248.414 92.0752 248.598 92.402 248.924C92.7287 249.251 92.9123 249.694 92.9123 250.156V284.531C92.9077 289.236 91.0355 293.747 87.7066 297.074C84.3777 300.401 79.864 302.272 75.1562 302.277V302.277ZM44.1223 251.897V284.531C44.1223 288.314 45.6259 291.942 48.3022 294.616C50.9786 297.291 54.6085 298.794 58.3934 298.794H75.1562C78.9398 298.789 82.567 297.285 85.2423 294.611C87.9177 291.938 89.4227 288.313 89.4273 284.531V251.897H44.1223Z" fill="#093F68"/>
<path d="M304.19 300.535H12.8096C7.15096 300.535 2.56372 305.116 2.56372 310.766C2.56372 316.416 7.15096 320.997 12.8096 320.997H304.19C309.849 320.997 314.436 316.416 314.436 310.766C314.436 305.116 309.849 300.535 304.19 300.535Z" fill="#725858"/>
<path d="M304.19 322.738H12.8096C11.1979 322.8 9.59046 322.535 8.08338 321.961C6.5763 321.387 5.20061 320.516 4.03865 319.398C2.87669 318.28 1.95236 316.939 1.321 315.456C0.689626 313.973 0.364197 312.378 0.364197 310.766C0.364197 309.154 0.689626 307.559 1.321 306.076C1.95236 304.593 2.87669 303.252 4.03865 302.134C5.20061 301.016 6.5763 300.144 8.08338 299.57C9.59046 298.996 11.1979 298.732 12.8096 298.794H304.19C305.802 298.732 307.41 298.996 308.917 299.57C310.424 300.144 311.799 301.016 312.961 302.134C314.123 303.252 315.048 304.593 315.679 306.076C316.31 307.559 316.636 309.154 316.636 310.766C316.636 312.378 316.31 313.973 315.679 315.456C315.048 316.939 314.123 318.28 312.961 319.398C311.799 320.516 310.424 321.387 308.917 321.961C307.41 322.535 305.802 322.8 304.19 322.738V322.738ZM12.8096 302.277C11.6617 302.225 10.5151 302.406 9.43919 302.809C8.36326 303.212 7.38027 303.829 6.54956 304.622C5.71885 305.416 5.05768 306.369 4.60596 307.425C4.15424 308.481 3.92133 309.618 3.92133 310.766C3.92133 311.914 4.15424 313.051 4.60596 314.107C5.05768 315.163 5.71885 316.116 6.54956 316.909C7.38027 317.703 8.36326 318.32 9.43919 318.723C10.5151 319.126 11.6617 319.307 12.8096 319.255H304.19C305.338 319.307 306.485 319.126 307.561 318.723C308.637 318.32 309.62 317.703 310.45 316.909C311.281 316.116 311.942 315.163 312.394 314.107C312.846 313.051 313.079 311.914 313.079 310.766C313.079 309.618 312.846 308.481 312.394 307.425C311.942 306.369 311.281 305.416 310.45 304.622C309.62 303.829 308.637 303.212 307.561 302.809C306.485 302.406 305.338 302.225 304.19 302.277H12.8096Z" fill="#093F68"/>
<path d="M94.0275 285.141H91.1872C90.7251 285.141 90.2818 284.957 89.9551 284.631C89.6283 284.304 89.4447 283.861 89.4447 283.4V255.763C89.4447 255.301 89.6283 254.858 89.9551 254.532C90.2818 254.205 90.7251 254.022 91.1872 254.022H94.0275C96.2297 253.756 98.4634 253.96 100.581 254.62C102.698 255.281 104.652 256.382 106.312 257.853C107.972 259.324 109.301 261.129 110.211 263.151C111.121 265.173 111.591 267.364 111.591 269.581C111.591 271.798 111.121 273.99 110.211 276.012C109.301 278.033 107.972 279.839 106.312 281.31C104.652 282.78 102.698 283.882 100.581 284.542C98.4634 285.203 96.2297 285.407 94.0275 285.141V285.141ZM92.9297 281.658H94.0275C95.7348 281.852 97.4639 281.684 99.1015 281.164C100.739 280.644 102.248 279.784 103.53 278.641C104.812 277.497 105.838 276.096 106.54 274.529C107.243 272.962 107.606 271.264 107.606 269.546C107.606 267.829 107.243 266.131 106.54 264.564C105.838 262.997 104.812 261.596 103.53 260.452C102.248 259.309 100.739 258.449 99.1015 257.929C97.4639 257.409 95.7348 257.241 94.0275 257.435H92.9297V281.658Z" fill="#093F68"/>
<path d="M114.938 97.0326H11.6421C9.23625 97.0326 7.28589 98.9817 7.28589 101.386V186.838C7.28589 189.242 9.23625 191.191 11.6421 191.191H114.938C117.343 191.191 119.294 189.242 119.294 186.838V101.386C119.294 98.9817 117.343 97.0326 114.938 97.0326Z" fill="white"/>
<path d="M114.938 192.933H11.6247C10.0102 192.928 8.46345 192.284 7.32347 191.141C6.1835 189.999 5.54336 188.451 5.54337 186.838V101.369C5.54337 99.7569 6.18407 98.211 7.32454 97.0712C8.46501 95.9315 10.0118 95.2912 11.6247 95.2912H114.938C116.552 95.2912 118.101 95.9309 119.244 97.0702C120.387 98.2094 121.032 99.7553 121.036 101.369V186.838C121.036 188.454 120.394 190.004 119.25 191.147C118.106 192.29 116.555 192.933 114.938 192.933V192.933ZM11.6247 98.8088C10.9361 98.8088 10.2757 99.0822 9.78881 99.5688C9.3019 100.055 9.02837 100.715 9.02837 101.404V186.873C9.02835 187.562 9.30133 188.224 9.78774 188.713C10.2742 189.203 10.9345 189.48 11.6247 189.485H114.938C115.631 189.485 116.296 189.209 116.786 188.72C117.276 188.23 117.551 187.565 117.551 186.873V101.369C117.538 100.685 117.256 100.034 116.767 99.5553C116.279 99.0767 115.622 98.8087 114.938 98.8088H11.6247Z" fill="#093F68"/>
<path d="M11.6247 97.0674H114.938C116.093 97.0674 117.201 97.5261 118.018 98.3425C118.835 99.159 119.294 100.266 119.294 101.421V108.961H7.28589V101.421C7.28588 100.269 7.74244 99.1646 8.55563 98.3487C9.36882 97.5327 10.4724 97.072 11.6247 97.0674V97.0674Z" fill="#68E1FD"/>
<path d="M119.294 110.668H7.28587C6.82373 110.668 6.38051 110.484 6.05373 110.158C5.72695 109.831 5.54337 109.388 5.54337 108.926V101.369C5.54337 99.7569 6.18407 98.211 7.32454 97.0712C8.46501 95.9315 10.0118 95.2912 11.6247 95.2912H114.938C116.552 95.2912 118.101 95.9309 119.244 97.0702C120.387 98.2094 121.032 99.7553 121.036 101.369V108.926C121.036 109.388 120.853 109.831 120.526 110.158C120.199 110.484 119.756 110.668 119.294 110.668ZM9.02837 107.185H117.551V101.369C117.538 100.685 117.256 100.034 116.767 99.5553C116.279 99.0767 115.622 98.8087 114.938 98.8088H11.6247C10.9361 98.8088 10.2757 99.0822 9.78881 99.5688C9.3019 100.055 9.02837 100.715 9.02837 101.404V107.185Z" fill="#093F68"/>
<path d="M15.981 105.304C17.2705 105.304 18.3159 104.26 18.3159 102.971C18.3159 101.682 17.2705 100.637 15.981 100.637C14.6914 100.637 13.646 101.682 13.646 102.971C13.646 104.26 14.6914 105.304 15.981 105.304Z" fill="#093F68"/>
<path d="M22.5154 105.304C23.8049 105.304 24.8503 104.26 24.8503 102.971C24.8503 101.682 23.8049 100.637 22.5154 100.637C21.2258 100.637 20.1804 101.682 20.1804 102.971C20.1804 104.26 21.2258 105.304 22.5154 105.304Z" fill="#093F68"/>
<path d="M29.0671 105.304C30.3567 105.304 31.4021 104.26 31.4021 102.971C31.4021 101.682 30.3567 100.637 29.0671 100.637C27.7776 100.637 26.7322 101.682 26.7322 102.971C26.7322 104.26 27.7776 105.304 29.0671 105.304Z" fill="#093F68"/>
<path d="M48.8793 141.735L32.7612 149.084V149.206L48.8793 156.554V164.6L23.1426 152.88V145.409L48.8793 133.637V141.735Z" fill="#093F68"/>
<path d="M67.9945 122.022L73.7796 124.094L58.5327 170.207L52.7825 168.135L67.9945 122.022Z" fill="#093F68"/>
<path d="M77.7003 156.554L93.8184 149.206V149.084L77.7003 141.735V133.637L103.42 145.357V152.828L77.7003 164.547V156.554Z" fill="#093F68"/>
</svg>
